<svg version="1.1" viewBox="0.0 0.0 473.18897637795277 400.87401574803147" fill="none" stroke="none" stroke-linecap="square" stroke-miterlimit="10" xmlns:xlink="http://www.w3.org/1999/xlink" xmlns="http://www.w3.org/2000/svg"><clipPath id="p.0"><path d="m0 0l473.18896 0l0 400.87402l-473.18896 0l0 -400.87402z" clip-rule="nonzero"/></clipPath><g clip-path="url(#p.0)"><path fill="#000000" fill-opacity="0.0" d="m0 0l473.18896 0l0 400.87402l-473.18896 0z" fill-rule="evenodd"/><path fill="#3d85c6" d="m234.52731 15.55022l0 0c0 -0.37979412 0.30789185 -0.6876774 0.6876831 -0.6876774l2.7506256 0l0 0c0.1823883 0 0.3572998 0.07245159 0.4862671 0.20141602c0.12896729 0.12896442 0.20141602 0.30387783 0.20141602 0.48626137l0 96.26244c0 0.37979126 -0.30789185 0.6876755 -0.6876831 0.6876755l-2.7506256 0c-0.37979126 0 -0.6876831 -0.30788422 -0.6876831 -0.6876755z" fill-rule="evenodd"/><path fill="#3d85c6" d="m57.73673 160.90077l178.8504 -97.637794l178.8504 97.637794z" fill-rule="evenodd"/><path fill="#3d85c6" d="m76.58444 179.1673l35.433067 0l0 160.81888l-35.433067 0z" fill-rule="evenodd"/><path fill="#6fa8dc" d="m124.01513 179.1673l35.433067 0l0 160.81888l-35.433067 0z" fill-rule="evenodd"/><path fill="#3d85c6" d="m171.44582 179.1673l35.433075 0l0 160.81888l-35.433075 0z" fill-rule="evenodd"/><path fill="#6fa8dc" d="m218.87651 179.1673l35.433075 0l0 160.81888l-35.433075 0z" fill-rule="evenodd"/><path fill="#3d85c6" d="m266.30722 179.1673l35.433044 0l0 160.81888l-35.433044 0z" fill-rule="evenodd"/><path fill="#6fa8dc" d="m313.73788 179.1673l35.433075 0l0 160.81888l-35.433075 0z" fill-rule="evenodd"/><path fill="#3d85c6" d="m361.16858 179.1673l35.433075 0l0 160.81888l-35.433075 0z" fill-rule="evenodd"/><path fill="#3d85c6" d="m14.059055 352.0902l445.07086 0l0 33.921265l-445.07086 0z" fill-rule="evenodd"/><path fill="#6fa8dc" d="m238.39021 18.25421l0 0c0 1.873167 3.964508 3.3916683 8.85498 3.3916683c4.890457 0 8.854965 -1.5185013 8.854965 -3.3916683l0 0c0 -1.8731651 3.964508 -3.3916674 8.85498 -3.3916674c4.8904724 0 8.85498 1.5185022 8.85498 3.3916674l0 27.133348c0 -1.873169 -3.964508 -3.3916702 -8.85498 -3.3916702c-4.8904724 0 -8.85498 1.5185013 -8.85498 3.3916702c0 1.8731651 -3.964508 3.3916664 -8.854965 3.3916664c-4.8904724 0 -8.85498 -1.5185013 -8.85498 -3.3916664z" fill-rule="evenodd"/></g></svg>