<svg version="1.1" viewBox="0.0 0.0 374.68766404199476 385.8293963254593" fill="none" stroke="none" stroke-linecap="square" stroke-miterlimit="10" xmlns:xlink="http://www.w3.org/1999/xlink" xmlns="http://www.w3.org/2000/svg"><clipPath id="p.0"><path d="m0 0l374.68765 0l0 385.8294l-374.68765 0l0 -385.8294z" clip-rule="nonzero"/></clipPath><g clip-path="url(#p.0)"><path fill="#000000" fill-opacity="0.0" d="m0 0l374.68765 0l0 385.8294l-374.68765 0z" fill-rule="evenodd"/><path fill="#0b5394" d="m252.95197 284.8516l18.677155 -18.614197l35.149597 35.3071l-18.677155 18.614166z" fill-rule="evenodd"/><path fill="#000000" d="m8.536745 162.04199l0 0c0 -85.956375 69.68142 -155.63779 155.6378 -155.63779l0 0c41.27771 0 80.86479 16.397507 110.052536 45.58526c29.187744 29.187744 45.585266 68.774826 45.585266 110.052536l0 0c0 85.95639 -69.68143 155.63779 -155.6378 155.63779l0 0c-85.95638 0 -155.6378 -69.6814 -155.6378 -155.63779z" fill-rule="evenodd"/><path fill="#ffffff" d="m24.002495 162.04199l0 0c0 -77.76343 62.75769 -140.80315 140.17322 -140.80315l0 0c37.176254 0 72.829865 14.834576 99.11743 41.240288c26.287598 26.405708 41.055786 62.219543 41.055786 99.56286l0 0c0 77.76343 -62.757675 140.80316 -140.17322 140.80316l0 0c-77.415535 0 -140.17322 -63.039734 -140.17322 -140.80316z" fill-rule="evenodd"/><path stroke="#ffffff" stroke-width="1.0" stroke-linejoin="round" stroke-linecap="butt" d="m24.002495 162.04199l0 0c0 -77.76343 62.75769 -140.80315 140.17322 -140.80315l0 0c37.176254 0 72.829865 14.834576 99.11743 41.240288c26.287598 26.405708 41.055786 62.219543 41.055786 99.56286l0 0c0 77.76343 -62.757675 140.80316 -140.17322 140.80316l0 0c-77.415535 0 -140.17322 -63.039734 -140.17322 -140.80316z" fill-rule="evenodd"/><path fill="#6fa8dc" d="m64.42782 198.63066l25.16536 0l0 48.157486l-25.16536 0z" fill-rule="evenodd"/><path fill="#3d85c6" d="m275.09616 329.7226l0 0c-2.4237366 -2.432434 -2.4164124 -6.368866 0.016326904 -8.792267l32.26114 -32.13745c1.1682434 -1.1637573 2.751007 -1.8158264 4.4000854 -1.8127747c1.6490784 0.0030517578 3.2294006 0.66101074 4.3933105 1.8291016l17.55365 17.616608c2.423706 2.432434 2.4164124 6.368866 -0.016326904 8.792267l-32.26117 32.13745c-2.4327087 2.4234009 -6.3696594 2.4161072 -8.793396 -0.016326904z" fill-rule="evenodd"/><path fill="#0b5394" d="m281.99997 356.67307l0 0c-2.7165527 -2.7339478 -2.7042542 -7.154236 0.02746582 -9.873016l50.013123 -49.77649c1.3117981 -1.305603 3.0881042 -2.0361938 4.938141 -2.0310364c1.8500366 0.005126953 3.6222534 0.74560547 4.9267883 2.0584717l19.674316 19.800354c2.7165527 2.7339172 2.7042542 7.154236 -0.027435303 9.873016l-50.013123 49.77646c-2.73172 2.7187805 -7.148407 2.706482 -9.864929 -0.027435303z" fill-rule="evenodd"/><path fill="#000000" d="m99.014046 161.5469l25.16536 0l0 85.25986l-25.16536 0z" fill-rule="evenodd"/><path stroke="#000000" stroke-width="1.0" stroke-linejoin="round" stroke-linecap="butt" d="m99.014046 161.5469l25.16536 0l0 85.25986l-25.16536 0z" fill-rule="evenodd"/><path fill="#6fa8dc" d="m133.60028 139.29544l25.165344 0l0 107.52756l-25.165344 0z" fill-rule="evenodd"/><path fill="#000000" d="m168.18651 105.889366l25.165344 0l0 140.94489l-25.165344 0z" fill-rule="evenodd"/><path stroke="#000000" stroke-width="1.0" stroke-linejoin="round" stroke-linecap="butt" d="m168.18651 105.889366l25.165344 0l0 140.94489l-25.165344 0z" fill-rule="evenodd"/><path fill="#6fa8dc" d="m202.77272 71.307045l25.16536 0l0 175.49606l-25.16536 0z" fill-rule="evenodd"/><path fill="#000000" d="m237.35895 180.09032l25.165375 0l0 66.74014l-25.165375 0z" fill-rule="evenodd"/><path stroke="#000000" stroke-width="1.0" stroke-linejoin="round" stroke-linecap="butt" d="m237.35895 180.09032l25.165375 0l0 66.74014l-25.165375 0z" fill-rule="evenodd"/><path fill="#000000" d="m288.80493 363.51663l0 0c-0.8407593 -0.8407593 -0.83914185 -2.2022705 0.0036010742 -3.0410461l56.853607 -56.584595c0.40472412 -0.4028015 0.9532471 -0.6286926 1.5249023 -0.62802124c0.5716553 6.713867E-4 1.1196594 0.22787476 1.523407 0.6316223l6.0891724 6.0891724c0.8407593 0.8407898 0.83914185 2.202301 -0.0036010742 3.0410767l-56.853638 56.584595c-0.8427429 0.83877563 -2.2075195 0.8371582 -3.0482788 -0.0036010742z" fill-rule="evenodd"/><path stroke="#000000" stroke-width="1.0" stroke-linejoin="round" stroke-linecap="butt" d="m288.80493 363.51663l0 0c-0.8407593 -0.8407593 -0.83914185 -2.2022705 0.0036010742 -3.0410461l56.853607 -56.584595c0.40472412 -0.4028015 0.9532471 -0.6286926 1.5249023 -0.62802124c0.5716553 6.713867E-4 1.1196594 0.22787476 1.523407 0.6316223l6.0891724 6.0891724c0.8407593 0.8407898 0.83914185 2.202301 -0.0036010742 3.0410767l-56.853638 56.584595c-0.8427429 0.83877563 -2.2075195 0.8371582 -3.0482788 -0.0036010742z" fill-rule="evenodd"/></g></svg>